<?xml version="1.0" encoding="iso-8859-1"?>
<!-- Generator: Adobe Illustrator 19.0.0, SVG Export Plug-In . SVG Version: 6.00 Build 0)  -->
<svg version="1.1" id="Capa_1" xmlns="http://www.w3.org/2000/svg" xmlns:xlink="http://www.w3.org/1999/xlink" x="0px" y="0px"
	 viewBox="0 0 512 512" style="enable-background:new 0 0 512 512;" xml:space="preserve">
<path style="fill:#FFC107;" d="M16,96h480l0,0v368c0,17.673-14.327,32-32,32H48c-17.673,0-32-14.327-32-32V96L16,96z"/>
<path style="fill:#FFA000;" d="M496,96H16L87.008,7.712c5.8-4.976,13.19-7.711,20.832-7.712h296.32
	c7.642,0.001,15.032,2.736,20.832,7.712L496,96z"/>
<polygon style="fill:#ECEFF1;" points="304,96 208,96 224,0 288,0 "/>
<rect x="208" y="96" style="fill:#FAFAFA;" width="96" height="96"/>
<path d="M480,512H32c-17.673,0-32-14.327-32-32V112c0-8.837,7.163-16,16-16h480c8.837,0,16,7.163,16,16v368
	C512,497.673,497.673,512,480,512z M32,128v352h448V128H32z"/>
<path d="M496,128c-5.352-0.003-10.347-2.681-13.312-7.136L423.424,32H88.576l-59.264,88.864c-5.111,7.208-15.098,8.909-22.307,3.797
	c-6.911-4.9-8.804-14.339-4.317-21.525l64-96C69.653,2.681,74.649,0.003,80,0h352c5.352,0.003,10.347,2.681,13.312,7.136l64,96
	c4.891,7.353,2.901,17.278-4.448,22.176C502.244,127.073,499.157,128.009,496,128z"/>
<path d="M208,128c-0.88,0.004-1.758-0.071-2.624-0.224c-8.711-1.453-14.597-9.688-13.152-18.4l16-96
	c1.712-8.669,10.127-14.309,18.796-12.597c8.302,1.639,13.892,9.46,12.756,17.845l-16,96C222.493,122.339,215.821,127.996,208,128z"
	/>
<path d="M304,128c-7.821-0.004-14.493-5.661-15.776-13.376l-16-96c-1.187-8.757,4.95-16.817,13.707-18.004
	c8.386-1.136,16.206,4.454,17.845,12.756l16,96c1.445,8.712-4.441,16.947-13.152,18.4C305.758,127.929,304.88,128.004,304,128z"/>
<path d="M304,224c-1.716-0.013-3.42-0.282-5.056-0.8L256,208.864L213.056,223.2c-4.885,1.567-10.222,0.737-14.4-2.24
	c-4.171-3.001-6.647-7.822-6.656-12.96v-96c0-8.837,7.163-16,16-16s16,7.163,16,16v73.824l26.944-9.024
	c3.288-1.055,6.824-1.055,10.112,0L288,185.824V112c0-8.837,7.163-16,16-16s16,7.163,16,16v96C320,216.837,312.837,224,304,224z"/>
<g>
	<path style="fill:#F44336;" d="M256,416h-32c-8.837,0-16-7.163-16-16s7.163-16,16-16h32c8.837,0,16-7.163,16-16s-7.163-16-16-16
		c-26.51,0-48-21.49-48-48s21.49-48,48-48h32c8.837,0,16,7.163,16,16s-7.163,16-16,16h-32c-8.837,0-16,7.163-16,16s7.163,16,16,16
		c26.51,0,48,21.49,48,48S282.51,416,256,416z"/>
	<path style="fill:#F44336;" d="M256,288c-8.837,0-16-7.163-16-16v-32c0-8.837,7.163-16,16-16c8.837,0,16,7.163,16,16v32
		C272,280.837,264.837,288,256,288z"/>
	<path style="fill:#F44336;" d="M256,448c-8.837,0-16-7.163-16-16v-32c0-8.837,7.163-16,16-16c8.837,0,16,7.163,16,16v32
		C272,440.837,264.837,448,256,448z"/>
</g>
<g>
</g>
<g>
</g>
<g>
</g>
<g>
</g>
<g>
</g>
<g>
</g>
<g>
</g>
<g>
</g>
<g>
</g>
<g>
</g>
<g>
</g>
<g>
</g>
<g>
</g>
<g>
</g>
<g>
</g>
</svg>
