<?xml version="1.0" encoding="utf-8"?>
<!-- Generator: Adobe Illustrator 22.0.1, SVG Export Plug-In . SVG Version: 6.00 Build 0)  -->
<svg version="1.1" id="Layer_1" xmlns="http://www.w3.org/2000/svg" xmlns:xlink="http://www.w3.org/1999/xlink" x="0px" y="0px"
	 viewBox="0 0 500.8 500.8" style="enable-background:new 0 0 500.8 500.8;" xml:space="preserve">
<style type="text/css">
	.st0{fill:#0DDDDD;}
	.st1{fill:#FF4D4D;}
	.st2{fill:#A58855;}
	.st3{fill:#CDA56D;}
	.st4{fill:#87F134;}
	.st5{fill:#ED7A9D;}
	.st6{fill:#34A9EA;}
	.st7{fill:#00FF00;}
	.st8{font-family:'AvenirNext-Medium';}
	.st9{font-size:12px;}
</style>
<polygon class="st0" points="263.3,26.9 238.3,26.9 211.7,53.2 218.4,113.8 284.1,113.8 298.3,56.5 "/>
<rect x="334.7" y="120.1" class="st1" width="121.1" height="70.9"/>
<g>
	<g>
		<g>
			<path d="M467.3,192.9V89.8c0-17.6-14.4-32-32-32h-80c-17.6,0-32,14.4-32,32v96h-10.1h-13.9v-63.6l8.4-75.8l-56.4-47l-56.4,47
				l8.4,75.8v60.2L94.2,73.4C84.1,63.4,70.8,57.8,56.5,57.8c-29.4,0-53.3,23.9-53.3,53.3c0,14.2,5.5,27.6,15.6,37.7L56,185.8H45.3
				l-44.7,152h42.7v152h424v-152h34.1L467.3,192.9z M251.3,65.8c4.4,0,8,3.6,8,8s-3.6,8-8,8s-8-3.6-8-8S246.9,65.8,251.3,65.8z
				 M243.3,26.9v24.4c-9.3,3.3-16,12.1-16,22.5c0,13.2,10.8,24,24,24c13.2,0,24-10.8,24-24c0-10.4-6.7-19.2-16-22.5V26.9l31.6,26.3
				l-6.7,60.6h-65.7l-6.7-60.6L243.3,26.9z M283.3,129.8l0,56h-64v-56H283.3z M184,185.8h-41.4l-40-40l20.7-20.7L184,185.8z
				 M120,185.8H78.6l-8-8l20.7-20.7L120,185.8z M30.2,137.4c-7-7-10.9-16.4-10.9-26.3c0-20.5,16.7-37.3,37.3-37.3
				c10,0,19.3,3.9,26.3,10.9l5.1,5.1l-52.7,52.7L30.2,137.4z M46.6,153.8l52.7-52.7l12.7,12.7l-52.7,52.7L46.6,153.8z M22,321.8
				l35.3-120h255.3l-35.3,120H22z M315.3,473.8h-256v-136h230l26-88.4L315.3,473.8L315.3,473.8z M339.3,89.8c0-8.8,7.2-16,16-16h80
				c8.8,0,16,7.2,16,16v16h-112V89.8z M339.3,121.8h112v64h-28.4c2.8-4.7,4.4-10.1,4.4-16c0-17.6-14.4-32-32-32s-32,14.4-32,32
				c0,5.9,1.7,11.3,4.4,16h-28.4V121.8z M411.3,169.8c0,8.8-7.2,16-16,16c-8.8,0-16-7.2-16-16s7.2-16,16-16
				C404.1,153.8,411.3,161,411.3,169.8z M451.3,473.8h-120V262.8l17.7,75.1h102.3V473.8z M361.6,321.8l-28.2-120H453l28.2,120H361.6
				z"/>
			<rect x="275.3" y="441.8" width="16" height="16"/>
			<rect x="243.3" y="441.8" width="16" height="16"/>
			<rect x="211.3" y="441.8" width="16" height="16"/>
		</g>
	</g>
</g>
<rect x="329.1" y="337" class="st2" width="123.6" height="137.9"/>
<polygon class="st2" points="330.3,256.7 344.5,315.8 350.7,337.8 364.3,337.8 329.1,337.8 329.1,311.4 "/>
<rect x="57.9" y="335.7" class="st2" width="258.3" height="139.2"/>
<polygon class="st2" points="316,244.6 316.3,312.8 316.3,335.7 328.1,335.1 289.3,336.3 296.8,309.2 "/>
<rect x="57.3" y="199.9" class="st3" width="220" height="123.6"/>
<polyline class="st3" points="19.4,322.7 28.3,295.2 57.6,199.9 58.2,300.1 58.5,323.5 "/>
<polyline class="st3" points="314.2,200.2 305.6,227.9 277.3,323.5 275.6,223.3 275.1,199.9 "/>
<polygon class="st3" points="486.1,322.5 360.5,323.5 332.5,200.9 454.1,200.9 "/>
<polygon class="st4" points="100.5,146.1 139.6,187.8 186.7,186.7 123,123.4 "/>
<polygon class="st4" points="78,187.8 69.1,178.1 91.2,155.6 123.5,186.8 "/>
<path class="st5" d="M33.6,145l56-55l-10.1-8.8c-12.6-12.9-33.3-13-46.1-0.2l-8.9,8.9c-11.9,11.9-12.4,30.9-1.2,43.4L33.6,145z"/>
<rect x="42" y="124.9" transform="matrix(0.7071 -0.7071 0.7071 0.7071 -71.4219 95.2683)" class="st0" width="74.5" height="17.9"/>
<rect x="216.8" y="127.7" class="st6" width="68.1" height="60"/>
<path class="st7" d="M452.7,111.7H339.3V89.6c0-8.7,7.1-15.8,15.8-15.8h80.5c9.4,0,17.1,7.6,17.1,17.1V111.7z"/>
<text transform="matrix(1 0 0 1 132.9755 457.8477)" class="st8 st9">Greater Opportunities Created</text>
</svg>
