<?xml version="1.0" encoding="iso-8859-1"?>
<!-- Generator: Adobe Illustrator 19.0.0, SVG Export Plug-In . SVG Version: 6.00 Build 0)  -->
<svg version="1.1" id="Layer_1" xmlns="http://www.w3.org/2000/svg" xmlns:xlink="http://www.w3.org/1999/xlink" x="0px" y="0px"
	 viewBox="0 0 511.999 511.999" style="enable-background:new 0 0 511.999 511.999;" xml:space="preserve">
<g>
	<g>
		<path d="M400.816,173.263h-6.48V73.686c0-1.404-0.326-2.786-0.954-4.041L361.056,4.995C359.526,1.934,356.397,0,352.975,0
			s-6.551,1.934-8.081,4.995l-32.325,64.651c-0.628,1.255-0.954,2.637-0.954,4.041v99.577h-14.255v-47.07
			c0-35.865-12.16-71.181-34.24-99.445c-1.712-2.191-4.339-3.473-7.12-3.473c-2.782,0-5.408,1.281-7.121,3.473
			c-22.08,28.262-34.24,63.58-34.24,99.445v47.071h-14.255V73.686c0-1.404-0.326-2.786-0.954-4.041L167.105,4.995
			C165.575,1.934,162.447,0,159.024,0c-3.423,0-6.551,1.934-8.081,4.995l-32.326,64.651c-0.628,1.255-0.954,2.637-0.954,4.041
			v99.577h-6.48c-4.99,0-9.035,4.045-9.035,9.035v275.804c0,29.719,24.177,53.896,53.896,53.896h199.911
			c29.719,0,53.896-24.177,53.896-53.896V182.299C409.851,177.309,405.807,173.263,400.816,173.263z M352.975,29.239l17.707,35.412
			h-35.412L352.975,29.239z M376.265,82.721v90.542h-17.516V82.721H376.265z M329.685,82.721h10.993v90.542h-10.993V82.721z
			 M255.999,47.848c13.447,20.673,21.406,44.68,22.982,69.309h-45.964C234.593,92.527,242.554,68.521,255.999,47.848z
			 M232.71,135.228h46.58v38.036h-46.58V135.228z M159.024,29.239l17.706,35.411h-35.412L159.024,29.239z M182.314,82.721v90.542
			h-9.088V82.721H182.314z M135.734,82.721h19.421v90.542h-19.421V82.721z M391.781,458.103c0,19.756-16.072,35.827-35.826,35.827
			H156.044c-19.755,0-35.826-16.071-35.826-35.826V232.709h271.562V458.103z M391.781,214.639H120.218v-23.305h271.562V214.639z"/>
	</g>
</g>
<g>
	<g>
		<path d="M367.199,284.461c-4.991,0-9.035,4.045-9.035,9.035v168.091c0,4.99,4.044,9.035,9.035,9.035s9.035-4.045,9.035-9.035
			V293.496C376.234,288.507,372.19,284.461,367.199,284.461z"/>
	</g>
</g>
<g>
	<g>
		<circle cx="367.194" cy="259.879" r="9.035"/>
	</g>
</g>
<g>
</g>
<g>
</g>
<g>
</g>
<g>
</g>
<g>
</g>
<g>
</g>
<g>
</g>
<g>
</g>
<g>
</g>
<g>
</g>
<g>
</g>
<g>
</g>
<g>
</g>
<g>
</g>
<g>
</g>
</svg>
